<svg id="Capa_1" enable-background="new 0 0 512 512" height="512" viewBox="0 0 512 512" width="512" xmlns="http://www.w3.org/2000/svg"><path d="m256 0c-141.159 0-256 114.841-256 256s114.841 256 256 256 256-114.841 256-256-114.841-256-256-256zm0 425.249c-93.324 0-169.249-75.925-169.249-169.249s75.925-169.249 169.249-169.249 169.249 75.925 169.249 169.249-75.925 169.249-169.249 169.249z"/><path d="m256 116.751c-76.782 0-139.249 62.467-139.249 139.249s62.467 139.249 139.249 139.249 139.249-62.467 139.249-139.249-62.467-139.249-139.249-139.249zm0 220.822c-44.98 0-81.572-36.593-81.572-81.573s36.592-81.573 81.572-81.573 81.572 36.593 81.572 81.573-36.593 81.573-81.572 81.573z"/><path d="m256 307.573c-28.438 0-51.572-23.135-51.572-51.573s23.135-51.573 51.572-51.573 51.572 23.135 51.572 51.573-23.134 51.573-51.572 51.573z"/></svg>