<svg width="800" height="600" xmlns="http://www.w3.org/2000/svg">
 <!-- Created with Method Draw - http://github.com/duopixel/Method-Draw/ -->
 <g fill="none" stroke="black" stroke-width="10">
  <path fill="black" d="m109.64999,171.2l-15.89999,45.8l-48,0l38,29l-14,46l39,-29"/>
  <path fill="black" d="m109.89999,171.75l13.10001,43.8l47,0l-37,30l14,45l-39,-28"/>
  <path fill="black" d="m239.64999,171.2l-15.89999,45.8l-48,0l38,29l-14,46l39,-29"/>
  <path fill="black" d="m239.89999,171.75l13.10001,43.8l47,0l-37,30l14,45l-39,-28"/>
  <path fill="black" d="m369.64999,171.2l-15.89999,45.8l-48,0l38,29l-14,46l39,-29"/>
  <path fill="black" d="m369.89999,171.75l13.10001,43.8l47,0l-37,30l14,45l-39,-28"/>
  <path fill="black" d="m499.64999,171.2l-15.89999,45.8l-48,0l38,29l-14,46l39,-29"/>
  <path fill="black" d="m499.89999,171.75l13.10001,43.8l47,0l-37,30l14,45l-39,-28"/>
  <path d="m629.64999,171.2l-15.89999,45.8l-48,0l38,29l-14,46l39,-29"/>
  <path d="m629.89999,171.75l13.10001,43.8l47,0l-37,30l14,45l-39,-28"/>  
 </g>
</svg>